# File created by Blade
# Date/Time:  Tue Sep 30 19:28:31 2014
#---------------------------------------------------------
:version 1.10
:name HOM
:units
  mass 1.0
  length 1.000000
  angle deg
:documentation
     Acclaim Skeleton File
:root
   axis xyz
   order TX TY TZ RX RY RZ
   position 0.000000 0.000000 0.000000
   orientation 0 0 0
:bonedata
   begin
      id 1
      name RightUpLeg_dum
      direction -1.000000 0.000000 0.000000
      length 3.766986
      axis 0.0 0.0 0.0 xyz
   end
   begin
      id 2
      name LeftUpLeg_dum
      direction 1.000000 0.000000 0.000000
      length 3.766986
      axis 0.0 0.0 0.0 xyz
   end
   begin
      id 3
      name Spine_dum
      direction 0.000000 1.000000 0.000000
      length 7.779697
      axis 0.0 0.0 0.0 xyz
   end
   begin
      id 4
      name RightUpLeg
      direction 0.000000 -1.000000 0.000000
      length 18.017682
      axis 0.0 0.0 0.0 xyz
      dof rx ry rz
   end
   begin
      id 5
      name RightLeg
      direction 0.000000 -1.000000 0.000000
      length 16.881075
      axis 0.0 0.0 0.0 xyz
      dof rx ry rz
   end
   begin
      id 6
      name RightFoot
      direction 0.000000 -0.258819 0.965926
      length 5.770812
      axis 15.0 0.0 0.0 xyz
      dof rx ry rz
   end
   begin
      id 7
      name RightToeBase
      direction 0.000000 0.000000 1.000000
      length 2.952750
      axis 0.0 0.0 0.0 xyz
      dof rx ry rz
   end
   begin
      id 8
      name LeftUpLeg
      direction 0.000000 -1.000000 0.000000
      length 18.017682
      axis 0.0 0.0 0.0 xyz
      dof rx ry rz
   end
   begin
      id 9
      name LeftLeg
      direction 0.000000 -1.000000 0.000000
      length 16.881075
      axis 0.0 0.0 0.0 xyz
      dof rx ry rz
   end
   begin
      id 10
      name LeftFoot
      direction 0.000000 -0.258819 0.965926
      length 5.770812
      axis 15.0 0.0 0.0 xyz
      dof rx ry rz
   end
   begin
      id 11
      name LeftToeBase
      direction 0.000000 0.000000 1.000000
      length 2.952750
      axis 0.0 0.0 0.0 xyz
      dof rx ry rz
   end
   begin
      id 12
      name Spine
      direction 0.000000 1.000000 0.000000
      length 0.000000
      axis 0.0 0.0 0.0 xyz
      dof rx ry rz
   end
   begin
      id 13
      name Spine_dum1
      direction 0.000000 1.000000 0.000000
      length 10.941760
      axis 0.0 0.0 0.0 xyz
   end
   begin
      id 14
      name Spine_dum2
      direction 0.000000 1.000000 0.000000
      length 10.941760
      axis 0.0 0.0 0.0 xyz
   end
   begin
      id 15
      name Spine_dum3
      direction 0.000000 1.000000 0.000000
      length 16.646042
      axis 0.0 0.0 0.0 xyz
   end
   begin
      id 16
      name RightShoulder
      direction -1.000000 0.000000 0.000000
      length 7.708937
      axis 0.0 0.0 90.0 xyz
      dof rx ry rz
   end
   begin
      id 17
      name RightArm
      direction -1.000000 0.000000 0.000000
      length 11.521345
      axis 0.0 0.0 90.0 xyz
      dof rx ry rz
   end
   begin
      id 18
      name RightForeArm
      direction -1.000000 0.000000 0.000000
      length 10.175898
      axis 0.0 0.0 90.0 xyz
      dof ry rz rx
   end
   begin
      id 19
      name RightHand
      direction -1.000000 0.000000 0.000000
      length 0.000000
      axis 0.0 0.0 90.0 xyz
      dof rx ry rz
   end
   begin
      id 20
      name RightHand_dum1
      direction -1.000000 0.000000 0.000000
      length 3.937000
      axis 0.0 0.0 90.0 xyz
   end
   begin
      id 21
      name RightHand_dum2
      direction 0.000000 0.000000 0.000000
      length 0.000000
      axis 0.0 0.0 90.0 xyz
   end
   begin
      id 22
      name RightHandThumb1
      direction 0.000000 0.000000 1.000000
      length 3.937000
      axis 0.0 0.0 90.0 xyz
      dof rx rz ry
   end
   begin
      id 23
      name LeftShoulder
      direction 1.000000 0.000000 0.000000
      length 7.708937
      axis 0.0 0.0 -90.0 xyz
      dof rx ry rz
   end
   begin
      id 24
      name LeftArm
      direction 1.000000 0.000000 0.000000
      length 11.521345
      axis 0.0 0.0 -90.0 xyz
      dof rx ry rz
   end
   begin
      id 25
      name LeftForeArm
      direction 1.000000 0.000000 0.000000
      length 10.175898
      axis 0.0 0.0 -90.0 xyz
      dof ry rz rx
   end
   begin
      id 26
      name LeftHand
      direction 1.000000 0.000000 0.000000
      length 0.000000
      axis 0.0 0.0 -90.0 xyz
      dof rx ry rz
   end
   begin
      id 27
      name LeftHand_dum1
      direction 1.000000 0.000000 0.000000
      length 3.937000
      axis 0.0 0.0 -90.0 xyz
   end
   begin
      id 28
      name LeftHand_dum2
      direction 0.000000 0.000000 0.000000
      length 0.000000
      axis 0.0 0.0 -90.0 xyz
   end
   begin
      id 29
      name LeftHandThumb1
      direction 0.000000 0.000000 1.000000
      length 3.937000
      axis 0.0 0.0 -90.0 xyz
      dof rx rz ry
   end
   begin
      id 30
      name Head
      direction 0.000000 1.000000 0.000000
      length 4.527550
      axis 0.0 0.0 0.0 xyz
      dof rx ry rz
   end
:hierarchy
   begin
      root RightUpLeg_dum LeftUpLeg_dum Spine_dum
      RightUpLeg_dum RightUpLeg
      LeftUpLeg_dum LeftUpLeg
      Spine_dum Spine
      RightUpLeg RightLeg
      RightLeg RightFoot
      RightFoot RightToeBase
      LeftUpLeg LeftLeg
      LeftLeg LeftFoot
      LeftFoot LeftToeBase
      Spine Spine_dum1 Spine_dum2 Spine_dum3
      Spine_dum1 RightShoulder
      Spine_dum2 LeftShoulder
      Spine_dum3 Head
      RightShoulder RightArm
      RightArm RightForeArm
      RightForeArm RightHand
      RightHand RightHand_dum1 RightHand_dum2
      RightHand_dum2 RightHandThumb1
      LeftShoulder LeftArm
      LeftArm LeftForeArm
      LeftForeArm LeftHand
      LeftHand LeftHand_dum1 LeftHand_dum2
      LeftHand_dum2 LeftHandThumb1
   end

# File created by Blade
# Date/Time:  Mon Sep 22 15:39:46 2014
# Frame Rate: 120.000 fps
#------------------------------------------------------
:FULLY-SPECIFIED
:DEGREES
279
root 2.037732 37.077758 2.217826 -4.157525 -3.538218 1.262004
RightUpLeg 11.691056 -5.204137 -3.191265
RightLeg -4.977568 -0.000000 0.000000
RightFoot -12.173834 -14.363192 16.127834
RightToeBase 15.532813 -0.000000 -0.000000
LeftUpLeg 10.030977 1.195430 2.284844
LeftLeg -1.696682 -0.000000 0.000000
LeftFoot -10.490857 14.590109 -17.723853
LeftToeBase 9.732300 -0.000000 -0.000000
Spine 0.560806 22.311541 1.016306
RightShoulder 16.933766 17.414318 -33.217674
RightArm 69.180235 -6.417083 109.345469
RightForeArm 80.674112 -0.000000 113.734806
RightHand 18.437309 -0.000000 2.354535
RightHandThumb1 -24.326973 -0.000000 -32.862282
LeftShoulder 0.647845 34.796931 6.085006
LeftArm 55.221588 30.862730 -51.780151
LeftForeArm 23.332115 -0.000000 16.608295
LeftHand -12.270799 -0.000000 -9.760525
LeftHandThumb1 -26.253704 0.000000 33.147579
Head 4.312290 -25.292187 9.214168
280
root 2.035621 37.076661 2.226774 -4.184424 -3.505515 1.267288
RightUpLeg 11.753601 -5.218686 -3.199012
RightLeg -5.006665 -0.000000 0.000000
RightFoot -12.199423 -14.372941 16.155659
RightToeBase 15.584449 -0.000000 -0.000000
LeftUpLeg 10.066274 1.163961 2.280555
LeftLeg -1.694213 -0.000000 0.000000
LeftFoot -10.499793 14.580206 -17.735532
LeftToeBase 9.716393 -0.000000 -0.000000
Spine 0.555091 22.310111 0.965206
RightShoulder 16.920742 17.325323 -33.186504
RightArm 69.219910 -6.438191 109.079283
RightForeArm 80.743596 -0.000000 113.512366
RightHand 18.501138 0.000000 2.439343
RightHandThumb1 -24.326973 -0.000000 -32.862282
LeftShoulder 0.700533 34.833242 6.141839
LeftArm 55.260796 30.952821 -51.662296
LeftForeArm 23.584235 -0.000000 16.580958
LeftHand -12.222600 -0.000000 -9.915160
LeftHandThumb1 -26.253704 0.000000 33.147579
Head 4.328216 -25.321461 9.291632
281
root 2.033322 37.074830 2.234976 -4.209495 -3.488565 1.262252
RightUpLeg 11.811200 -5.238231 -3.196173
RightLeg -5.037763 -0.000000 0.000000
RightFoot -12.200770 -14.369806 16.168977
RightToeBase 15.544588 -0.000000 -0.000000
LeftUpLeg 10.107246 1.123934 2.284139
LeftLeg -1.702789 -0.000000 0.000000
LeftFoot -10.517290 14.603035 -17.721288
LeftToeBase 9.698418 -0.000000 -0.000000
Spine 0.553907 22.309255 0.934778
RightShoulder 16.896854 17.122290 -33.189177
RightArm 69.375559 -6.505743 108.821624
RightForeArm 80.844976 -0.000000 113.296799
RightHand 18.245484 -0.000000 2.184651
RightHandThumb1 -24.326973 -0.000000 -32.862282
LeftShoulder 0.739634 34.838698 6.180887
LeftArm 55.260798 31.042316 -51.575588
LeftForeArm 23.556928 -0.000000 16.521922
LeftHand -11.957529 -0.000000 -10.280926
LeftHandThumb1 -26.253704 0.000000 33.147579
Head 4.302650 -25.227315 9.418604
282
root 2.030537 37.073202 2.242383 -4.226493 -3.473425 1.263391
RightUpLeg 11.864512 -5.249504 -3.197514
RightLeg -5.081722 -0.000000 0.000000
RightFoot -12.192546 -14.385524 16.155256
RightToeBase 15.571255 -0.000000 -0.000000
LeftUpLeg 10.135414 1.102912 2.286248
LeftLeg -1.705685 -0.000000 0.000000
LeftFoot -10.530321 14.596207 -17.727967
LeftToeBase 9.738063 -0.000000 -0.000000
Spine 0.546517 22.277880 0.887611
RightShoulder 16.886638 17.049232 -33.141858
RightArm 69.433240 -6.544748 108.578705
RightForeArm 81.023562 0.000000 113.077220
RightHand 18.094474 -0.000000 2.262230
RightHandThumb1 -24.326973 -0.000000 -32.862282
LeftShoulder 0.731917 34.855876 6.198819
LeftArm 55.236336 31.097897 -51.540313
LeftForeArm 23.633015 -0.000000 16.461257
LeftHand -12.148043 -0.000000 -10.006128
LeftHandThumb1 -26.253704 0.000000 33.147579
Head 4.300203 -25.179993 9.498647
